<svg xmlns="http://www.w3.org/2000/svg" viewBox="0 0 60 36">
  <rect width="60" height="36" fill="#012169"/>
  <path d="M0 0h6.7l17.6 10.6V0h10.4v10.6L52.6 0H60v5.5l-16.8 10H60v5H43.2L60 31v5.1h-6.6L35 26.1V36H24.6v-9.9L6.8 36H0v-5.1l16.8-10H0v-5l16.8-.1L0 5.5z" fill="#fff"/>
  <path d="M24.5 0h10.9v14.4H60v7.2H35.4V36H24.5V21.6H0v-7.2h24.5z" fill="#C8102E"/>
  <path d="M0 14.4h24.5V0h5.5v14.4H60v7.2H29.9V36h-5.5V21.6H0z" fill="#fff"/>
  <path d="M0 31.5l19.2-11.3h4.2L0 36v-4.5zm60 0V36L36.6 20.2h4.2L60 31.5zM0 4.5V0l23.4 15.8h-4.2L0 4.5zm60 0l-19.2 11.3h-4.2L60 0v4.5z" fill="#C8102E"/>
</svg>




